# xmcd
#
# Track frame offsets: 
#        150
#        22622
#        40385
#        63547
#        69314
#        141307
#        177376
#        180183
#        218190
#        232830
#        260902
#        266703
#        270152
#        292275
#        306035
#
# Disc length: 4510 seconds
#
# Revision: 0
# Processed by: cddbd v1.5.2PL0 Copyright (c) Steve Scherf et al.
# Submitted via: ExactAudioCopy v0.95b3
#
DISCID=dc119c0f
DTITLE=Jimi Hendrix  - Rockin' The USA Vol.1- Disc 5
DYEAR=1900
DGENRE=
TTITLE0=Lover Man
TTITLE1=Fire
TTITLE2=Foxy Lady
TTITLE3=Busted Amp Rap
TTITLE4=Red House
TTITLE5=Hey Joe
TTITLE6=Sunshine Of Your Love,The
TTITLE7=Hear My Train A Comin'
TTITLE8=Can You Please Crawl Out Your Window
TTITLE9=Purple Haze
TTITLE10=Wild Thing
TTITLE11=Introduction
TTITLE12=Foxy Lady
TTITLE13=Fire
TTITLE14=Hear My Train A Comin'
EXTD=
EXTT0=
EXTT1=
EXTT2=
EXTT3=
EXTT4=
EXTT5=
EXTT6=
EXTT7=
EXTT8=
EXTT9=
EXTT10=
EXTT11=
EXTT12=
EXTT13=
EXTT14=
PLAYORDER=
